#amk 2

#spc
{
	#title   "Bloody Tears"
	#game    "Super Castlevania 4"
	#author  "Masanori Adachi"
	#comment "By Tamaki"
}

#path "BloodyTears4"

#samples
{
	#default
	"Organ.brr"
	"Kick.brr"
	"Snare.brr"
	"Bass.brr"
	"Timpani.brr"
	"Strings.brr"
	"Piano.brr"
	"Flute.brr"
}

#instruments
{
	"Organ.brr" $FF $E0 $80 $05 $03
	"Kick.brr" $FF $E0 $80 $04 $00
	"Snare.brr" $FF $E0 $80 $04 $00
	"Bass.brr" $FF $F3 $80 $03 $C1
	"Timpani.brr" $FF $E0 $80 $04 $00
	"Strings.brr" $F9 $CB $80 $05 $B6
	"Piano.brr" $FF $E8 $80 $05 $82
	"Flute.brr" $A9 $E2 $80 $03 $06
}


#0 t23 w235
@30 y11 v90
(1)[o5 d32<a32>a32<a32>g32<a32>f32<a32>e32<a32>f32<a32>e32<a32>d32<a32>
e32<a32>f32<a32>g32<a32>f32<a32>e32<a32>c32<a32>e32<a32>d32<a32>]2
/
y10 (2)[o4 v165 @31 d16 @32 >c+32 @31 <d16d32 @32 >c+16 @31 <d16 @32 >c+16 @31 <d32d32 @32 >c+16 @31]3
<d16 @32 >c+32 @31 <d16d32 @32 >c+16 @31 <d16 @32 >c+16 @31 <d32 @32 v110 >c+64c+64 v147 c+32 v165 c+32 
(2)3
<d16 @32 >c+32 @31 <d16d32 @32 >c+16c+32 v110 c+32c+48 v120 c+48 v127 c+48 v165 c+32 v174 c+32 @31 v157 <d32 @32 v174 >c+32 
v165
@31 <d16 @32 >c+32 @31 <d16d32 @32 >c+16 @31 <d16 @32 >c+16r32 @31 <d32 @32 >c+16 
@31 <d16 @32 >c+32 @31 <d16d32 @32 >c+16 @31 <d16 @32 >c+16 @31 <d32 v157 d32 @32 v137 >c+32 v165 c+32 
@31 <d16 @32 >c+32 @31 <d16d32 @32 >c+16 @31 <d16 @32 >c+32. @31 <d64d32d32 @32 >c+16  
@31 <d16 @32 >c+32 @31 <d16d32 @32 q7e >c+32c+32 @31 <d32 @32 >c+32c+16 @31 v147 <d32 v174 d32 @32 v147 >c+64 v127 c+64 v165 c+32
[@31 <d16 @32 >c+32 @31 <d16d32 @32 >c+16 @31 <d16 @32 >c+16 @31 <d32d32 @32 >c+16] 
@31 <d16 @32 >c+32 @31 <d16d32 @32 >c+16 @31 <d16 @32 >c+16 @31 <d16 @32 v147 >c+32 v165 c+32 
*
@31 <d16 @32 >c+32 @31 <d32 v147 d32d32 @32 v165 >c+16 @31 <d32 @32 v147 >c+32 v165 c+32 @31 <d32 @32 v110 >c+32 @31 v147 <d32 @32 v165 >c+64 v147 c+64 v165 c+64 v147 c+64 v174 c+32 
@31 v165 <d32 @32 >c+32 @31 <d16d32 @32 >c+16 @31 <d16 @32 >c+16 @31 <d32d32 @32 >c+16 
*2
@31 <d32 @32 >c+32 @31 <d32d32 @32 >c+32 @31 <d16d64d64 @32 >c+16 y7 v94 e64 v125 e64 v142 e32 y10 v97 d64 v127 d64 v149 d32 y12 v149 <a+32a+32 
[[
[v140 o4 @32 g32 v104 g32g32 v140 g32 v104 g32g32 @31 v155 <g48g48g48]3
v140 o4 @32 g32 v104 g32g32 v140 g32 v104 g32g32 v140 g32 v104 g32
]]2
^32
r16. 
@30 y9 v61
o5 d32<a32 v68 >a32<a32>g32<a32 v74 >f32<a32>e32<a32> v78 f32<a32> v81 (3)[e32<a32>d32<a32>e32<a32>f32<a32>g32<a32>f32<a32>e32<a32>c+32<a32>e32<a32] >d32<a32


#1
@30 y9 v81 $EE $0F
(1)2
/$EE $00
@33 y10
[o4
v198 d16. v177 a16 v157 >d32 v157 <d32e32 v198 d16. v177 a16. v147 >d16
v198 <c16. v177 g16.d32 v157 >c8 v177 <g16.c16
v198 <a+16. v177 >f16.a+12...f32 v198 <a+16 v157 >a+16
v198 a16. v177 e16 v157 d+32 v157 e32g32 v198 a16. v177 a16. v147 c+16
v198 d16. v177 a16 v157 >d32 v157 <d32 v157 e32 v198 d16. v177 a16.d16
v198 c16. v177 g16.d32 v147 >c8 v177 <g16.b16
v198 <a+16. v177 >d16.f32 v198 a+8 v177 d32f32d32a+16
v198 g16. v177 g16d+32e32g32 v198 a16. v157 a16. v198 a16]
v198 d16. v177 a16<a32>>d32<e32 v198 c16. v177 g16. v147 >c16
v198 <<a+16. v177 >f16.a+16 v198 c16. v177 g16. v147 >c16
v198 <d16. v177 a16<a32 v157 >>d32 v177 <e32 v198 c16. v177 g16. v147 >c16
v198 <<a+16. v177 >f16.a+16 v198 c16. v177 g16.c16
*
@34 o2 
[v159 g32 v106 g32g32 v159 g32 v106 g32g32 v123 a16]3
v106 b32b32b32 v134 b32 v143 b32 v152 b32 v159 b48 v170 b48 v179 b48
*2
t20
v159 >c32 v106 <e32>c32 v159 <e32 v106 >c32<e32 v123 >c16 t16 v106 c32<e32>c32 v134 <e32 t12 v143 >c32 v152 <e32 t8 v159 >c32<e16 
t23 r16. @30 $EE $0F y11
o5 v55 d32<a32 v61 >a32<a32>g32<a32 v66 >f32<a32>e32<a32 v74 >f32<a32> (3) d32<a32


#2
r24 @30 y10 v49
o5 (1)
d32<a32>a32<a32>g32<a32>f32<a32>e32<a32>f32<a32>e32<a32>d32<a32>e32<a32>f32<a32>g32<a32>f32<a32>e32<a32>c48 
@32 y8 v101 <g64 v150 >e64e32 y10 v152 <g16
/
@35 y11 $F4 $02
(4)[o4 v125 g16 v118 >c32 v125 <a4^32g16f16 
g16. v118 >c16. v125 <a8.g16f16 
g16 v118 >c32 v125 <a4^32g16a16 
a+16.] (5)[v118 >c12... v125 <a16.a+12...]
(4) (6)[v118>c12... v125 <a16b16>c+16e16]
@30 y10 v89
$F4 $01
o5[d32<a32>a32<a32>g32<a32>f32<a32>e32<g32>f32<g32>e32<g32>d32<g32>e32<g32>f32<g32>g32<g32>f32<g32>e32<g32>c32<g32>e32<g32>d32] <g32
* <g64 $F4 $01 ^64 
@35 y11 
(4)(5)
(4)(6)
$ED $7F $E0 y10 v194
o2 $F4 $01 d4c4<a+4>c4
d4c8 $F4 $01 ^8
$F4 $01 <a+4> v170 c8^16 $ED $0F $F1 $F4 $01 ^16.
r16.r24 
@30 y10 v41 $F4 $02
o5 
d32<a32>a32<a32>g32<a32>f32<a32>e32<a32>f32<a32> (3) d64.


#3
@35 $ED $14 $E2 y10 v110
o2 d1^4 $E8 $24 $C2 ^4..^6 
$ED $0F $E2 d12..
/
@35 y9 v117
o4(7)[e16g32f4^32e16d16 
e16.g16.f8.e16d16] 
(8)[d16g32f4^32c+16d16 
g4d16.c+12...]
(7)
d16g32d4^32e16f16
d4e16d16<a16>c+16 
@36 y9 
o4[v105 e16. v97 d12...]3
v81 f16 v93 e16 v105 d16 v116 c16
<[v105  e16. v97 d12...]2	
v105 e16. v97 d8.		
v105 $F4 $01 f32g16
v97 e64 $F4 $01 ^64 v105 f16. 
@35 y9 v117
(7)
(8)
v130
(7)
>d16g32f4^32c+16d16
d4e4 
@35 $ED $79 $F2 y8 v191
o2 
[a16.a12...g16.g12... 
f16.f12...] g16g16g16g16 
* v169 g16g16 v159 g16 v149 $ED $0F $F1 g16. 
r16. 
$ED $14 $E2 y10 v106
o3 $F4 $01 d2
e8 $F4 $01 ^8 
v127
>c+4 


#4

@35 $ED $14 $E2 y9 v87
o2 d2 v109 a2^4 $E8 $24 $9E ^2^16..
v118 $ED $0F $E2
>>d8^64
/
r32 @35
y12 v90
o4 
(9)[g16 v87 >c32 v90 <a4^32g16f16 
g16. v87 >c16. v90 <a8.g16f16]
(10)[g16 v87 >c32 v90 <a4^32g16a16 
a+16. v87 >c12...] v90 <a16.a+12... 
(9)
(10) v90 a16b16>c+16e32 
o3 v120 d4c4
v113 f4 v127 g4 
v120 a4g4 
f4 v101 >c4 
r32 
y12 v101
[o4g16>c32<a4^32g16] f16 
g16.>c16.<a8.g16f16 
* a16a+16. >c12...<a16.a+8 
r12...
@37 y8 v116 $DE $18 $32 $28
<<a32>d32e32 v101 f4^12... 
v116 e32f32a32 v101 >d16e16f16a16 
v90 >d4^16.e16.f16 
v101 e4 v90 <e16d16<a16>c+16 
@35 $ED $79 $F2 y12 v191 
<[e16. d12...]3
f16e16d16c16 
*3
v169 f16g16 v159 e16 v149 $ED $0F $F1 f16. 
r16. 
v107 o2 $ED $14 $E2 $F4 $01 a2 v94 g4 v126 a8 $F4 $01 ^8


#5
@35 $ED $14 $E2 y11 v81
o2 d2^16 q7c ^4.. 
>v109 c4 $E8 $24 $C1 ^2^12^32
v187 $ED $0F $E2 d8^96
/
r32
@35 y8 v87
o4(11)[e16g32f4^32e16d16 
e16.g16.f8.e16d16]
(12)[d16g32f4^32c+16d16 
g4d16.] c+12... 
(11)
d16g32d4^32e16f16 
d4e16d16<a16>c+32 
@36 y11 
o3[v105 e16. v97 d12...]2
v105 e16. v97 d6^48	
v81 f16 v97 e16 v105 d16 v116 c32
> [v105 e16. v97 d12...]3
v105 f16 g16 v97 e32 v105 f16. 
r32 @35 y8 v87
(11)
(12) c+8 
r16^12... 
@37 $EE $14 $DE $18 $32 $28 y7 v97
<<a32>d32e32f4^12...
e32f32a32> v87 d16e16f16 
a16 v76 >d4^16.e16. 
f16 v87 e4 v76 <e16d16<a16 
r12.. 
@35 $ED $7F $E0 y10
$EE $00
>>
[v0 $E8 $10 $6A d12^48r12..]3
r4
*2
v0 $E8 $10 $6A d16..r4.^32 
$ED $14 $E2 y8 v90
o2 $F4 $01 a2 
v79 g4 v107 a64 $F4 $01 ^64
y10 o5
@32 v137 c+32 v186 c+32 @31 <d32 v165 d32 @32 v186 >c+64 v177 c+64c+64^96